<svg id="svg" xmlns="http://www.w3.org/2000/svg" xmlns:xlink="http://www.w3.org/1999/xlink" width="400" height="364.73029045643153" viewBox="0, 0, 400,364.73029045643153"><g id="svgg"><path id="path0" d="M243.361 0.583 C 219.580 5.132,204.975 22.463,200.930 50.933 C 200.042 57.184,199.631 57.160,198.713 50.804 C 195.224 26.650,186.483 13.491,168.243 4.928 C 156.546 -0.562,140.009 -0.596,123.651 4.837 C 88.774 16.422,56.444 50.995,34.853 99.797 C 24.433 123.349,18.832 142.890,17.432 160.581 C 17.188 163.662,16.821 167.676,16.616 169.502 C 13.940 193.350,25.615 225.918,40.193 235.270 C 43.760 237.558,43.755 237.308,40.272 239.376 C 31.683 244.479,20.002 255.177,15.080 262.448 C 8.030 272.863,0.000 291.014,0.000 296.534 L -0.000 298.882 2.386 296.623 C 14.878 284.798,34.107 274.720,54.149 269.495 C 67.032 266.136,72.449 265.547,93.983 265.161 C 113.667 264.809,116.505 264.523,124.896 262.052 C 126.836 261.481,128.552 261.009,128.709 261.005 C 128.866 261.000,129.094 261.789,129.214 262.759 C 130.479 272.921,130.374 272.580,132.546 273.611 C 134.079 274.338,136.678 273.761,138.242 272.345 C 138.644 271.981,139.238 271.785,139.561 271.909 C 139.884 272.033,140.348 271.934,140.593 271.689 C 141.118 271.164,141.353 271.670,142.953 276.763 C 146.534 288.161,152.762 296.958,163.052 305.155 C 181.731 320.034,194.253 339.159,198.962 359.997 C 200.014 364.654,200.412 365.655,200.419 363.658 C 200.424 361.960,202.158 355.366,203.957 350.207 C 209.843 333.325,221.457 317.410,236.722 305.309 C 246.933 297.214,253.130 288.724,256.800 277.801 C 257.448 275.874,258.096 274.417,258.242 274.563 C 258.387 274.708,258.506 274.458,258.506 274.007 C 258.506 272.899,259.535 271.513,259.908 272.118 C 260.065 272.371,260.474 272.470,260.817 272.338 C 261.161 272.206,261.771 272.396,262.173 272.760 C 263.737 274.176,266.336 274.753,267.869 274.026 C 270.040 272.996,269.938 273.326,271.199 263.184 C 271.473 260.981,271.697 260.854,273.918 261.645 C 281.135 264.216,286.117 264.759,305.809 265.123 C 347.308 265.890,371.939 274.358,398.237 296.898 L 400.000 298.409 400.000 295.263 C 400.000 293.442,399.825 292.116,399.585 292.116 C 399.357 292.116,399.170 291.910,399.170 291.658 C 399.170 290.556,394.356 279.119,391.633 273.753 C 384.017 258.743,373.979 247.850,360.062 239.492 C 356.152 237.143,356.097 237.650,360.605 234.469 C 370.760 227.301,380.523 207.403,382.155 190.549 C 382.370 188.330,382.735 184.741,382.967 182.573 C 388.461 131.164,351.760 53.236,306.224 19.621 C 285.988 4.683,261.190 -2.827,243.361 0.583 M236.208 16.615 C 302.910 31.363,357.564 87.450,375.284 159.336 C 380.111 178.921,380.719 186.559,378.291 197.095 C 374.231 214.712,368.331 225.682,360.035 231.044 C 339.913 244.048,322.622 244.659,298.755 233.208 C 287.125 227.628,283.285 226.604,272.451 226.197 L 265.442 225.934 262.997 220.589 C 259.240 212.379,255.068 206.507,246.390 197.215 C 238.348 188.603,228.746 176.323,227.075 172.512 C 226.415 171.008,219.453 159.551,217.872 157.369 C 216.340 155.253,210.049 150.130,207.284 148.745 C 201.921 146.060,199.083 148.592,201.326 154.061 C 202.557 157.063,202.516 161.665,201.224 165.324 L 200.269 168.028 199.278 165.238 C 198.004 161.653,197.838 156.594,198.915 154.149 C 201.444 148.406,198.632 145.577,193.131 148.330 C 190.366 149.715,184.075 154.838,182.543 156.954 C 180.962 159.136,174.000 170.593,173.340 172.098 C 171.669 175.908,162.067 188.188,154.025 196.800 C 145.347 206.092,141.175 211.964,137.418 220.174 L 134.973 225.519 128.586 225.758 C 118.710 226.128,111.529 228.041,101.911 232.862 C 82.958 242.363,67.932 243.760,52.098 237.495 C 34.450 230.511,27.529 221.374,22.124 197.925 C 19.696 187.389,20.304 179.750,25.131 160.166 C 42.851 88.279,97.505 32.193,164.207 17.445 C 176.838 14.653,186.541 20.787,190.860 34.296 C 194.859 46.808,195.483 52.141,197.280 89.212 C 198.093 105.985,198.945 120.973,199.172 122.518 C 199.399 124.063,199.607 127.050,199.634 129.157 C 199.691 133.616,200.288 132.333,200.362 127.593 C 200.387 125.996,200.600 122.915,200.836 120.747 C 201.072 118.579,201.827 104.855,202.513 90.249 C 204.221 53.873,205.126 46.162,209.115 34.014 C 213.671 20.141,223.527 13.812,236.208 16.615 M194.606 152.910 C 194.606 153.027,194.437 153.448,194.230 153.844 C 192.163 157.804,192.326 163.637,194.690 170.226 C 195.823 173.383,195.551 177.315,193.852 182.365 C 192.560 186.203,191.722 190.109,190.873 196.248 C 190.254 200.719,186.808 211.009,184.363 215.687 C 180.929 222.256,179.079 225.506,178.176 226.556 C 177.685 227.127,176.145 228.931,174.753 230.565 C 173.362 232.199,171.165 234.440,169.871 235.544 C 168.577 236.648,166.658 238.312,165.606 239.241 C 162.927 241.605,159.225 244.366,155.766 246.579 C 147.850 251.643,140.176 258.731,136.216 264.637 C 131.203 272.111,130.380 271.031,131.384 258.299 C 132.124 248.925,132.537 246.269,134.510 238.174 C 135.427 234.409,136.249 230.968,136.337 230.529 C 137.964 222.317,145.622 208.934,153.249 200.970 C 156.710 197.357,160.588 192.693,168.212 182.977 C 173.247 176.561,174.387 174.828,179.434 165.899 C 183.089 159.434,186.519 155.615,190.664 153.397 C 191.824 152.776,194.606 152.432,194.606 152.910 M209.668 153.793 C 213.786 155.905,217.286 159.779,220.981 166.314 C 226.028 175.242,227.168 176.976,232.203 183.392 C 239.827 193.108,243.705 197.771,247.166 201.385 C 252.213 206.655,255.054 210.702,259.008 218.257 C 261.348 222.728,263.534 228.198,264.078 230.944 C 264.165 231.383,264.988 234.824,265.905 238.589 C 267.878 246.684,268.291 249.340,269.030 258.714 C 270.035 271.446,269.212 272.526,264.199 265.052 C 260.239 259.146,252.565 252.058,244.649 246.994 C 241.190 244.781,237.488 242.020,234.809 239.656 C 233.757 238.727,231.838 237.063,230.544 235.959 C 229.250 234.855,227.053 232.614,225.662 230.980 C 224.270 229.346,222.730 227.541,222.239 226.971 C 221.336 225.921,219.486 222.671,216.052 216.102 C 213.607 211.424,210.161 201.134,209.542 196.663 C 208.693 190.524,207.855 186.618,206.563 182.780 C 204.864 177.730,204.592 173.798,205.725 170.641 C 208.089 164.052,208.252 158.219,206.185 154.259 C 205.978 153.862,205.809 153.442,205.809 153.325 C 205.809 152.842,208.434 153.160,209.668 153.793 M197.757 166.465 C 198.394 167.698,198.129 168.432,197.037 168.458 C 196.377 168.474,195.357 162.065,195.717 160.166 C 195.966 158.849,196.043 159.016,196.543 161.949 C 196.847 163.729,197.393 165.761,197.757 166.465 M204.758 163.278 C 204.376 166.011,203.670 168.880,203.382 168.873 C 202.279 168.847,202.021 168.112,202.672 166.853 C 203.044 166.134,203.572 164.140,203.846 162.422 C 204.389 159.008,205.244 159.810,204.758 163.278 M201.817 171.058 C 202.526 172.177,202.843 173.630,203.118 177.017 C 203.231 178.412,204.072 182.514,204.988 186.132 C 205.903 189.751,206.840 194.304,207.071 196.252 C 207.493 199.809,209.007 205.569,210.955 211.023 C 211.531 212.636,212.215 215.344,212.476 217.040 C 212.736 218.736,213.100 220.311,213.283 220.539 C 213.466 220.768,214.082 222.541,214.651 224.481 C 216.846 231.964,219.363 237.680,224.178 246.113 C 234.804 264.725,237.157 271.786,234.110 275.908 C 233.607 276.588,233.195 277.375,233.195 277.656 C 233.195 280.829,225.272 289.227,217.427 294.370 C 214.346 296.389,209.538 299.791,206.743 301.930 L 201.660 305.818 201.660 271.967 L 201.660 238.117 200.726 238.249 L 199.793 238.382 199.378 272.001 L 198.963 305.619 194.813 302.363 C 192.531 300.572,187.676 297.118,184.025 294.687 C 175.079 288.731,167.220 280.572,167.220 277.241 C 167.220 276.960,166.800 276.162,166.286 275.467 C 165.214 274.016,164.933 268.192,165.847 266.349 C 166.119 265.801,166.937 263.952,167.665 262.241 C 169.684 257.493,171.685 253.642,176.640 244.971 C 181.110 237.149,183.696 231.195,185.900 223.651 C 186.400 221.940,186.956 220.353,187.137 220.124 C 187.318 219.896,187.679 218.322,187.939 216.625 C 188.200 214.929,188.884 212.221,189.460 210.608 C 191.408 205.155,192.922 199.394,193.344 195.837 C 193.575 193.889,194.512 189.336,195.427 185.717 C 196.342 182.099,197.184 177.997,197.297 176.603 C 197.777 170.696,199.921 168.065,201.817 171.058 M183.402 224.913 C 183.402 227.051,180.528 234.882,178.355 238.662 C 177.480 240.185,176.763 241.526,176.763 241.642 C 176.763 241.758,175.877 243.340,174.793 245.158 C 173.709 246.975,172.046 249.845,171.097 251.535 C 168.817 255.599,162.104 259.690,147.718 265.783 C 141.194 268.546,136.365 270.903,136.169 271.420 C 135.978 271.923,134.547 271.879,134.227 271.360 C 133.388 270.003,143.311 257.727,148.340 253.898 C 149.481 253.030,151.624 251.393,153.103 250.260 C 154.581 249.127,155.963 248.307,156.174 248.438 C 156.385 248.568,156.809 248.330,157.117 247.909 C 157.425 247.488,159.056 246.199,160.742 245.045 C 169.651 238.945,176.331 232.704,180.849 226.261 C 182.438 223.993,183.402 223.485,183.402 224.913 M219.566 226.675 C 224.443 233.632,231.116 239.711,241.425 246.592 C 255.799 256.185,270.640 272.199,265.155 272.199 C 264.731 272.199,264.322 272.035,264.246 271.835 C 264.050 271.318,259.221 268.961,252.697 266.198 C 238.311 260.105,231.598 256.014,229.318 251.950 C 228.369 250.260,226.706 247.390,225.622 245.573 C 224.538 243.755,223.651 242.173,223.651 242.057 C 223.651 241.941,222.935 240.600,222.060 239.077 C 217.362 230.903,215.284 220.567,219.566 226.675 " stroke="none" fill="#000000" fill-rule="evenodd"></path></g></svg>